<mxfile host="app.diagrams.net" modified="2024-05-14T15:42:57.878Z" agent="Mozilla/5.0 (Windows NT 10.0; Win64; x64) AppleWebKit/537.36 (KHTML, like Gecko) Chrome/124.0.0.0 Safari/537.36 Edg/124.0.0.0" etag="-2oLl7Vz2eRg_bFF-Daj" version="24.4.0" type="device">
  <diagram name="Page-1" id="s8v0iG39h_dg2EPmeYR4">
    <mxGraphModel dx="1303" dy="721" grid="1" gridSize="10" guides="1" tooltips="1" connect="1" arrows="1" fold="1" page="1" pageScale="1" pageWidth="850" pageHeight="1100" math="0" shadow="0">
      <root>
        <mxCell id="0" />
        <mxCell id="1" parent="0" />
        <mxCell id="j745oS6YL6vkKCS1M9ES-16" value="&lt;div&gt;&lt;br&gt;&lt;/div&gt;&lt;div&gt;&lt;br&gt;&lt;/div&gt;&lt;div&gt;&lt;br&gt;&lt;/div&gt;&lt;div&gt;&lt;br&gt;&lt;/div&gt;&lt;div&gt;&lt;br&gt;&lt;/div&gt;&lt;div&gt;&lt;br&gt;&lt;/div&gt;&lt;div&gt;&lt;br&gt;&lt;/div&gt;&lt;div&gt;&lt;br&gt;&lt;/div&gt;&lt;div&gt;&lt;br&gt;&lt;/div&gt;&lt;div&gt;&lt;br&gt;&lt;/div&gt;&lt;div&gt;&lt;br&gt;&lt;/div&gt;&lt;div&gt;&lt;br&gt;&lt;/div&gt;&lt;div&gt;&lt;br&gt;&lt;/div&gt;" style="rounded=0;whiteSpace=wrap;html=1;" parent="1" vertex="1">
          <mxGeometry x="311.25" y="270" width="257.5" height="320" as="geometry" />
        </mxCell>
        <mxCell id="j745oS6YL6vkKCS1M9ES-1" value="To do app website container diagram" style="text;html=1;align=center;verticalAlign=middle;whiteSpace=wrap;rounded=0;" parent="1" vertex="1">
          <mxGeometry x="50" y="50" width="60" height="30" as="geometry" />
        </mxCell>
        <mxCell id="j745oS6YL6vkKCS1M9ES-17" style="edgeStyle=orthogonalEdgeStyle;rounded=0;orthogonalLoop=1;jettySize=auto;html=1;exitX=0.5;exitY=1;exitDx=0;exitDy=0;" parent="1" edge="1">
          <mxGeometry relative="1" as="geometry">
            <mxPoint x="409.97" y="110.00000000000006" as="sourcePoint" />
            <mxPoint x="410.0044827586207" y="300" as="targetPoint" />
            <Array as="points">
              <mxPoint x="410" y="150" />
              <mxPoint x="410" y="150" />
            </Array>
          </mxGeometry>
        </mxCell>
        <mxCell id="j745oS6YL6vkKCS1M9ES-18" value="POST request" style="edgeLabel;html=1;align=center;verticalAlign=middle;resizable=0;points=[];" parent="j745oS6YL6vkKCS1M9ES-17" vertex="1" connectable="0">
          <mxGeometry x="-0.4559" y="-1" relative="1" as="geometry">
            <mxPoint x="1" y="9" as="offset" />
          </mxGeometry>
        </mxCell>
        <mxCell id="j745oS6YL6vkKCS1M9ES-2" value="To do app website" style="whiteSpace=wrap;html=1;aspect=fixed;" parent="1" vertex="1">
          <mxGeometry x="400" y="30" width="80" height="80" as="geometry" />
        </mxCell>
        <mxCell id="j745oS6YL6vkKCS1M9ES-34" style="edgeStyle=orthogonalEdgeStyle;rounded=0;orthogonalLoop=1;jettySize=auto;html=1;exitX=0;exitY=0.25;exitDx=0;exitDy=0;entryX=1;entryY=0.25;entryDx=0;entryDy=0;" parent="1" source="j745oS6YL6vkKCS1M9ES-3" target="j745oS6YL6vkKCS1M9ES-4" edge="1">
          <mxGeometry relative="1" as="geometry" />
        </mxCell>
        <mxCell id="j745oS6YL6vkKCS1M9ES-3" value="Trello API" style="whiteSpace=wrap;html=1;aspect=fixed;" parent="1" vertex="1">
          <mxGeometry x="710" y="300" width="80" height="80" as="geometry" />
        </mxCell>
        <mxCell id="j745oS6YL6vkKCS1M9ES-22" style="edgeStyle=orthogonalEdgeStyle;rounded=0;orthogonalLoop=1;jettySize=auto;html=1;exitX=0.75;exitY=0;exitDx=0;exitDy=0;entryX=0.75;entryY=1;entryDx=0;entryDy=0;" parent="1" source="j745oS6YL6vkKCS1M9ES-4" target="j745oS6YL6vkKCS1M9ES-2" edge="1">
          <mxGeometry relative="1" as="geometry" />
        </mxCell>
        <mxCell id="j745oS6YL6vkKCS1M9ES-23" value="GET request" style="edgeLabel;html=1;align=center;verticalAlign=middle;resizable=0;points=[];" parent="j745oS6YL6vkKCS1M9ES-22" vertex="1" connectable="0">
          <mxGeometry x="0.1914" y="1" relative="1" as="geometry">
            <mxPoint x="11" y="23" as="offset" />
          </mxGeometry>
        </mxCell>
        <mxCell id="j745oS6YL6vkKCS1M9ES-29" style="edgeStyle=orthogonalEdgeStyle;rounded=0;orthogonalLoop=1;jettySize=auto;html=1;entryX=0;entryY=0.5;entryDx=0;entryDy=0;" parent="1" edge="1">
          <mxGeometry relative="1" as="geometry">
            <mxPoint x="480" y="360" as="sourcePoint" />
            <mxPoint x="709.9999999999998" y="360" as="targetPoint" />
          </mxGeometry>
        </mxCell>
        <mxCell id="j745oS6YL6vkKCS1M9ES-30" value="POST request data" style="edgeLabel;html=1;align=center;verticalAlign=middle;resizable=0;points=[];" parent="j745oS6YL6vkKCS1M9ES-29" vertex="1" connectable="0">
          <mxGeometry x="-0.1318" y="-1" relative="1" as="geometry">
            <mxPoint x="18" y="-41" as="offset" />
          </mxGeometry>
        </mxCell>
        <mxCell id="j745oS6YL6vkKCS1M9ES-49" style="edgeStyle=orthogonalEdgeStyle;rounded=0;orthogonalLoop=1;jettySize=auto;html=1;exitX=0.25;exitY=0;exitDx=0;exitDy=0;entryX=0.25;entryY=1;entryDx=0;entryDy=0;" parent="1" source="j745oS6YL6vkKCS1M9ES-4" target="j745oS6YL6vkKCS1M9ES-2" edge="1">
          <mxGeometry relative="1" as="geometry" />
        </mxCell>
        <mxCell id="j745oS6YL6vkKCS1M9ES-4" value="Flask" style="whiteSpace=wrap;html=1;aspect=fixed;" parent="1" vertex="1">
          <mxGeometry x="400" y="300" width="80" height="80" as="geometry" />
        </mxCell>
        <mxCell id="j745oS6YL6vkKCS1M9ES-6" value="Application code" style="whiteSpace=wrap;html=1;aspect=fixed;" parent="1" vertex="1">
          <mxGeometry x="400" y="440" width="80" height="80" as="geometry" />
        </mxCell>
        <mxCell id="j745oS6YL6vkKCS1M9ES-12" style="edgeStyle=orthogonalEdgeStyle;rounded=0;orthogonalLoop=1;jettySize=auto;html=1;" parent="1" source="j745oS6YL6vkKCS1M9ES-9" edge="1">
          <mxGeometry relative="1" as="geometry">
            <mxPoint x="390" y="60" as="targetPoint" />
          </mxGeometry>
        </mxCell>
        <mxCell id="j745oS6YL6vkKCS1M9ES-13" value="Enter to do item" style="edgeLabel;html=1;align=center;verticalAlign=middle;resizable=0;points=[];" parent="j745oS6YL6vkKCS1M9ES-12" vertex="1" connectable="0">
          <mxGeometry x="-0.1332" relative="1" as="geometry">
            <mxPoint as="offset" />
          </mxGeometry>
        </mxCell>
        <mxCell id="j745oS6YL6vkKCS1M9ES-9" value="To do app user" style="shape=umlActor;verticalLabelPosition=bottom;verticalAlign=top;html=1;outlineConnect=0;" parent="1" vertex="1">
          <mxGeometry x="200" y="30" width="30" height="60" as="geometry" />
        </mxCell>
        <mxCell id="j745oS6YL6vkKCS1M9ES-33" value="Docker container" style="text;html=1;align=center;verticalAlign=middle;whiteSpace=wrap;rounded=0;" parent="1" vertex="1">
          <mxGeometry x="385" y="540" width="110" height="30" as="geometry" />
        </mxCell>
        <mxCell id="j745oS6YL6vkKCS1M9ES-43" style="edgeStyle=orthogonalEdgeStyle;rounded=0;orthogonalLoop=1;jettySize=auto;html=1;exitX=1.039;exitY=0.163;exitDx=0;exitDy=0;entryX=-0.016;entryY=0.169;entryDx=0;entryDy=0;entryPerimeter=0;exitPerimeter=0;" parent="1" source="j745oS6YL6vkKCS1M9ES-4" target="j745oS6YL6vkKCS1M9ES-3" edge="1">
          <mxGeometry relative="1" as="geometry" />
        </mxCell>
        <mxCell id="j745oS6YL6vkKCS1M9ES-44" style="edgeStyle=orthogonalEdgeStyle;rounded=0;orthogonalLoop=1;jettySize=auto;html=1;exitX=-0.017;exitY=0.819;exitDx=0;exitDy=0;entryX=1.003;entryY=0.825;entryDx=0;entryDy=0;entryPerimeter=0;exitPerimeter=0;" parent="1" source="j745oS6YL6vkKCS1M9ES-3" target="j745oS6YL6vkKCS1M9ES-4" edge="1">
          <mxGeometry relative="1" as="geometry" />
        </mxCell>
        <mxCell id="j745oS6YL6vkKCS1M9ES-47" value="GET request data" style="edgeLabel;html=1;align=center;verticalAlign=middle;resizable=0;points=[];" parent="j745oS6YL6vkKCS1M9ES-44" vertex="1" connectable="0">
          <mxGeometry x="0.0326" relative="1" as="geometry">
            <mxPoint as="offset" />
          </mxGeometry>
        </mxCell>
        <mxCell id="j745oS6YL6vkKCS1M9ES-48" style="edgeStyle=orthogonalEdgeStyle;rounded=0;orthogonalLoop=1;jettySize=auto;html=1;exitX=0.862;exitY=1.023;exitDx=0;exitDy=0;entryX=0.856;entryY=0.03;entryDx=0;entryDy=0;entryPerimeter=0;exitPerimeter=0;" parent="1" source="j745oS6YL6vkKCS1M9ES-2" target="j745oS6YL6vkKCS1M9ES-4" edge="1">
          <mxGeometry relative="1" as="geometry" />
        </mxCell>
        <mxCell id="Yt3PA_Nmh7udFgJOJOLa-1" style="edgeStyle=orthogonalEdgeStyle;rounded=0;orthogonalLoop=1;jettySize=auto;html=1;exitX=0.369;exitY=0.992;exitDx=0;exitDy=0;entryX=0.369;entryY=0.011;entryDx=0;entryDy=0;entryPerimeter=0;exitPerimeter=0;" edge="1" parent="1" source="j745oS6YL6vkKCS1M9ES-4" target="j745oS6YL6vkKCS1M9ES-6">
          <mxGeometry relative="1" as="geometry" />
        </mxCell>
        <mxCell id="Yt3PA_Nmh7udFgJOJOLa-3" style="edgeStyle=orthogonalEdgeStyle;rounded=0;orthogonalLoop=1;jettySize=auto;html=1;entryX=0.575;entryY=1.011;entryDx=0;entryDy=0;entryPerimeter=0;" edge="1" parent="1" target="j745oS6YL6vkKCS1M9ES-4">
          <mxGeometry relative="1" as="geometry">
            <mxPoint x="446" y="440" as="sourcePoint" />
          </mxGeometry>
        </mxCell>
        <mxCell id="Yt3PA_Nmh7udFgJOJOLa-4" value="Request route and function" style="edgeLabel;html=1;align=center;verticalAlign=middle;resizable=0;points=[];" vertex="1" connectable="0" parent="Yt3PA_Nmh7udFgJOJOLa-3">
          <mxGeometry x="-0.0889" y="1" relative="1" as="geometry">
            <mxPoint as="offset" />
          </mxGeometry>
        </mxCell>
      </root>
    </mxGraphModel>
  </diagram>
</mxfile>
